<svg width="158" height="217" viewBox="0 0 158 217" fill="none" xmlns="http://www.w3.org/2000/svg"><g clip-path="url(#clip0)" fill="#181949"><path d="M4.693 134.708H2.458v22.62h2.235v-22.62zm15.979 22.621v-10.066c0-1.697-.335-2.828-1.006-3.62-.67-.792-1.564-1.131-2.793-1.131-2.682 0-4.023 1.584-4.023 4.751v10.179h-2.235v-16.513h2.235v1.809c1.006-1.47 2.458-2.149 4.246-2.149 2.012 0 3.464.566 4.47 1.81.894 1.244 1.452 3.167 1.452 5.881v9.162h-2.346v-.113zm12.068.339c-2.124 0-4.023-.905-5.587-2.828l1.564-1.357c1.23 1.47 2.682 2.262 4.246 2.262.894 0 1.676-.226 2.347-.679.558-.452.893-1.018.893-1.809 0-.453-.111-.905-.335-1.244-.223-.34-.558-.679-1.005-1.018a4.515 4.515 0 00-1.23-.679c-.335-.226-.893-.339-1.452-.679-.782-.339-1.341-.565-1.9-.904-.447-.227-1.005-.566-1.452-1.018-.559-.34-.894-.792-1.118-1.358a4.736 4.736 0 01-.335-1.809c0-1.244.447-2.262 1.453-3.054 1.005-.792 2.235-1.131 3.799-1.131 2.123 0 3.91.792 5.252 2.488l-1.453 1.244c-1.117-1.131-2.458-1.809-3.91-1.809-.895 0-1.677.226-2.236.565a1.81 1.81 0 00-.894 1.584c0 .339.112.678.224.904.112.227.335.566.559.679.223.226.446.339.893.566.447.226.67.339 1.006.452.224.113.67.226 1.117.452.671.227 1.118.453 1.453.679.335.113.782.452 1.341.792.559.339 1.006.678 1.23 1.018.334.339.558.791.781 1.244.224.565.336 1.131.336 1.81 0 1.357-.447 2.488-1.453 3.28-1.117 1.018-2.347 1.357-4.134 1.357zm13.967 0c-2.123 0-3.24-1.244-3.24-3.732v-11.085h-2.794v-2.035h2.794v-5.656l2.235-1.131v6.787h4.134v2.035h-4.134v10.067c0 .791.111 1.47.335 1.923.223.452.67.678 1.453.678.67 0 1.564-.339 2.458-1.018l-.224 2.375c-.894.566-1.9.792-3.017.792zm9.61-20.698c-.224.226-.67.452-1.006.452-.447 0-.782-.113-1.005-.452-.224-.227-.447-.679-.447-1.018 0-.453.111-.792.447-1.131.335-.34.67-.453 1.005-.453.447 0 .782.113 1.006.453.223.339.447.678.447 1.131 0 .452-.112.791-.447 1.018zm-2.123 3.845h2.235v16.513h-2.235v-16.513zm11.733 16.853c-2.124 0-3.24-1.244-3.24-3.732v-11.085h-2.794v-2.035h2.793v-5.656l2.235-1.131v6.787h4.134v2.035h-4.134v10.067c0 .791.112 1.47.335 1.923.224.452.67.678 1.453.678.67 0 1.564-.339 2.458-1.018l-.224 2.375c-1.005.566-1.9.792-3.016.792zm17.319-.339v-1.584c-.559.679-1.117 1.244-1.788 1.584-.67.339-1.34.452-2.235.452-2.123 0-3.687-.565-4.58-1.81-.895-1.244-1.454-3.166-1.454-5.881v-9.161h2.235v10.066c0 1.583.335 2.827 1.006 3.619.67.792 1.564 1.131 2.793 1.131 2.682 0 4.023-1.583 4.023-4.75v-10.18h2.235v16.514h-2.235zm11.732.339c-2.122 0-3.24-1.244-3.24-3.732v-11.085h-2.793v-2.035h2.793v-5.656l2.235-1.131v6.787h4.134v2.035h-4.134v10.067c0 .791.112 1.47.335 1.923.224.452.67.678 1.453.678.782 0 1.564-.339 2.458-1.018l-.223 2.375a6.02 6.02 0 01-3.017.792zm-90.732 8.709c-.223.227-.67.453-1.005.453-.447 0-.783-.113-1.006-.453-.224-.226-.447-.678-.447-1.018 0-.452.112-.791.447-1.131.335-.339.67-.452 1.006-.452.447 0 .782.113 1.005.452.224.34.447.679.447 1.131-.112.34-.223.679-.447 1.018zm-2.235 3.733h2.235v16.513H2.011V170.11zm17.767 16.513v-10.066c0-1.697-.335-2.828-1.006-3.62-.67-.792-1.564-1.131-2.793-1.131-2.682 0-4.023 1.584-4.023 4.751v10.179H9.721v-16.513h2.235v1.809c1.006-1.47 2.459-2.149 4.246-2.149 2.012 0 3.464.566 4.47 1.81.894 1.244 1.453 3.167 1.453 5.881v9.162h-2.347v-.113zm11.621.452c-2.123 0-3.24-1.244-3.24-3.732v-11.084h-2.794v-2.036h2.794v-5.655l2.234-1.131v6.786h4.135v2.036h-4.135v10.066c0 .792.112 1.47.335 1.923.224.452.67.678 1.453.678.67 0 1.565-.339 2.458-1.018l-.223 2.376c-1.006.452-2.011.791-3.017.791zm12.961 0c-2.122 0-3.798-.791-5.14-2.488-1.34-1.697-1.899-3.733-1.899-6.108 0-2.714.67-4.75 1.9-6.334 1.34-1.583 3.017-2.262 5.14-2.262 1.9 0 3.464.679 4.581 2.036 1.23 1.357 1.788 3.28 1.788 5.995 0 .565 0 1.131-.112 1.583H39.556c.224 1.697.67 3.054 1.564 4.072.783 1.018 1.9 1.47 3.24 1.47 1.342 0 2.57-.452 3.688-1.244l1.23 1.471c-1.341 1.131-3.017 1.809-4.917 1.809zm-4.692-9.84h8.939c0-2.036-.447-3.393-1.34-4.298-.895-.792-1.789-1.244-2.906-1.244-1.341 0-2.458.452-3.352 1.357-.782 1.018-1.341 2.375-1.341 4.185zm15.532 9.388v-22.169l2.234-1.131v23.3H55.2zm7.933 0v-22.169l2.235-1.131v23.3h-2.235zm10.057-20.246c-.224.227-.67.453-1.006.453-.447 0-.782-.113-1.006-.453-.223-.226-.447-.678-.447-1.018 0-.452.112-.791.447-1.131.336-.339.67-.452 1.006-.452.447 0 .782.113 1.006.452.223.34.447.679.447 1.131 0 .34-.224.679-.447 1.018zm-2.235 3.733h2.235v16.513h-2.235V170.11zm12.291 23.412l-1.006-1.809c2.459-.114 4.135-.566 5.029-1.358.894-.791 1.34-1.809 1.34-3.054v-2.488c-1.005 1.47-2.458 2.262-4.469 2.262-1.9 0-3.464-.792-4.693-2.262-1.34-1.47-1.9-3.619-1.9-6.334 0-2.714.67-4.75 1.9-6.334 1.23-1.583 2.905-2.262 4.916-2.262 1.788 0 3.24.679 4.358 1.923v-1.583h2.235v16.287c0 4.411-2.57 6.786-7.71 7.012zm1.564-8.483c.67 0 1.453-.226 2.235-.791.782-.453 1.341-1.131 1.788-2.036v-7.918a4.613 4.613 0 00-1.788-1.809c-.782-.453-1.452-.679-2.123-.679-1.564 0-2.793.566-3.575 1.697-.783 1.131-1.23 2.714-1.23 4.863 0 2.036.447 3.733 1.341 4.864.67 1.131 1.9 1.809 3.352 1.809zm17.544 2.036c-2.123 0-3.8-.791-5.14-2.488-1.341-1.697-1.9-3.733-1.9-6.108 0-2.714.67-4.75 1.9-6.334 1.34-1.583 3.017-2.262 5.14-2.262 1.899 0 3.463.679 4.581 2.036 1.229 1.357 1.788 3.28 1.788 5.995 0 .565 0 1.131-.112 1.583H97.549c.223 1.697.67 3.054 1.564 4.072.782 1.018 1.9 1.47 3.241 1.47 1.34 0 2.57-.452 3.687-1.244l1.229 1.471c-1.453 1.131-3.129 1.809-4.916 1.809zm-4.805-9.84h8.939c0-2.036-.447-3.393-1.341-4.298-.894-.792-1.788-1.244-2.905-1.244-1.341 0-2.458.452-3.352 1.357-.894.905-1.23 2.375-1.341 4.185zm25.477 9.388v-10.066c0-1.697-.336-2.828-1.006-3.62-.671-.792-1.564-1.131-2.794-1.131-2.681 0-4.022 1.584-4.022 4.751v10.179h-2.235v-16.513h2.235v1.809c1.005-1.47 2.458-2.149 4.246-2.149 2.011 0 3.464.566 4.469 1.81.894 1.244 1.453 3.167 1.453 5.881v9.162h-2.346v-.113zm12.849.452c-2.011 0-3.575-.791-4.693-2.262-1.117-1.47-1.787-3.619-1.787-6.334 0-2.714.558-4.863 1.787-6.334 1.23-1.583 2.794-2.262 4.917-2.262 1.229 0 2.235.34 3.24.905.894.566 1.565 1.471 2.012 2.602l-2.012.791c-.558-1.47-1.676-2.262-3.24-2.262-2.905 0-4.246 2.262-4.246 6.673s1.452 6.56 4.246 6.56c.894 0 1.676-.226 2.235-.678.67-.453 1.117-1.018 1.341-1.81l2.011.792c-.335 1.131-1.118 2.036-2.123 2.714-1.118.566-2.347.905-3.688.905zm15.644 0c-2.123 0-3.799-.791-5.14-2.488-1.341-1.697-1.9-3.733-1.9-6.108 0-2.714.671-4.75 1.9-6.334 1.341-1.583 3.017-2.262 5.14-2.262 1.9 0 3.464.679 4.581 2.036 1.23 1.357 1.788 3.28 1.788 5.995 0 .565 0 1.131-.111 1.583h-11.063c.224 1.697.671 3.054 1.565 4.072.782 1.018 1.899 1.47 3.24 1.47 1.341 0 2.57-.452 3.688-1.244l1.229 1.471c-1.453 1.131-3.129 1.809-4.917 1.809zm-4.805-9.84h8.939c0-2.036-.446-3.393-1.34-4.298-.894-.792-1.788-1.244-2.906-1.244-1.341 0-2.458.452-3.352 1.357-.782 1.018-1.229 2.375-1.341 4.185zM7.933 216.37c-2.123 0-3.799-.792-5.14-2.489-1.34-1.696-1.9-3.732-1.9-6.107 0-2.715.671-4.751 1.9-6.334 1.341-1.584 3.017-2.262 5.14-2.262 1.9 0 3.464.678 4.582 2.036 1.229 1.357 1.788 3.28 1.788 5.994 0 .566 0 1.131-.112 1.584H3.24c.223 1.696.67 3.053 1.564 4.071.782 1.018 1.9 1.471 3.24 1.471 1.341 0 2.57-.453 3.688-1.244l1.229 1.47c-1.453 1.131-3.129 1.81-5.029 1.81zm-4.693-9.727h8.94c0-2.036-.447-3.394-1.341-4.298-.894-.792-1.788-1.244-2.906-1.244-1.34 0-2.458.452-3.352 1.357-.894.905-1.34 2.375-1.34 4.185zm19.108 9.726c-2.123 0-3.24-1.244-3.24-3.732v-11.084h-2.794v-2.036h2.793v-5.655l2.235-1.132v6.787h4.135v2.036h-4.135v10.066c0 .792.112 1.47.335 1.923.224.452.67.678 1.453.678.782 0 1.564-.339 2.458-1.018l-.223 2.376c-1.006.565-1.9.791-3.017.791zm20.002 0c-2.124 0-3.688-.791-4.917-2.375-1.23-1.583-1.788-3.619-1.788-6.334 0-2.714.558-4.75 1.788-6.334 1.229-1.583 2.793-2.262 4.916-2.262 1.565 0 3.017.566 4.358 1.584v-6.9l2.235-1.131v23.413h-2.235v-1.47c-1.23 1.244-2.682 1.809-4.358 1.809zm.223-2.036c.782 0 1.564-.226 2.346-.678a5.896 5.896 0 001.788-1.923v-8.257c-1.006-1.583-2.346-2.375-4.134-2.375-1.453 0-2.682.566-3.464 1.697-.782 1.131-1.23 2.714-1.23 4.863 0 1.923.448 3.506 1.23 4.751 1.005 1.244 2.123 1.922 3.464 1.922zm17.655 2.037c-2.123 0-3.8-.792-5.14-2.262-1.23-1.471-1.9-3.62-1.9-6.334 0-2.715.67-4.864 1.9-6.334 1.229-1.584 3.017-2.262 5.028-2.262 2.123 0 3.8.791 5.14 2.262 1.23 1.47 1.9 3.619 1.9 6.334 0 2.714-.67 4.863-1.9 6.334-1.229 1.47-2.905 2.262-5.028 2.262zm0-2.036c1.453 0 2.57-.566 3.464-1.81.782-1.131 1.229-2.828 1.229-4.863 0-2.036-.447-3.733-1.23-4.864-.781-1.131-1.899-1.696-3.463-1.696-1.565 0-2.682.565-3.464 1.696s-1.23 2.828-1.23 4.977c0 2.036.448 3.732 1.23 4.863.782 1.131 2.011 1.697 3.464 1.697zm21.342 1.696v-10.179c0-1.697-.335-2.828-1.006-3.619-.67-.792-1.564-1.131-2.793-1.131-2.682 0-4.023 1.583-4.023 4.75v10.179h-2.235v-16.513h2.235v1.81c1.006-1.471 2.459-2.149 4.246-2.149 2.012 0 3.464.565 4.47 1.809.894 1.245 1.453 3.167 1.453 5.882v9.161H81.57zm17.543 0v-10.179c0-1.697-.335-2.828-1.006-3.619-.67-.792-1.564-1.131-2.793-1.131-2.682 0-4.023 1.583-4.023 4.75v10.179h-2.235v-16.513h2.235v1.81c1.006-1.471 2.459-2.149 4.246-2.149 2.012 0 3.464.565 4.47 1.809.894 1.245 1.453 3.167 1.453 5.882v9.161h-2.347zm13.521.34c-2.123 0-3.799-.792-5.14-2.489-1.341-1.696-1.9-3.732-1.9-6.107 0-2.715.671-4.751 1.9-6.334 1.341-1.584 3.017-2.262 5.14-2.262 1.899 0 3.464.678 4.581 2.036 1.229 1.357 1.788 3.28 1.788 5.994 0 .566 0 1.131-.112 1.584h-11.062c.224 1.696.67 3.053 1.564 4.071.783 1.018 1.9 1.471 3.241 1.471 1.341 0 2.57-.453 3.687-1.244l1.229 1.47c-1.452 1.131-3.128 1.81-4.916 1.81zm-4.805-9.727h8.939c0-2.036-.447-3.394-1.341-4.298-.894-.792-1.788-1.244-2.905-1.244-1.341 0-2.458.452-3.352 1.357-.782 1.018-1.229 2.375-1.341 4.185zm1.564-9.275l4.582-5.09h3.464l-5.699 5.09h-2.347zm19.778 19.002c-2.123 0-3.799-.792-5.14-2.489-1.34-1.696-1.899-3.732-1.899-6.107 0-2.715.67-4.751 1.899-6.334 1.341-1.584 3.017-2.262 5.14-2.262 1.9 0 3.464.678 4.582 2.036 1.229 1.357 1.788 3.28 1.788 5.994 0 .566 0 1.131-.112 1.584h-11.062c.223 1.696.67 3.053 1.564 4.071.782 1.018 1.9 1.471 3.24 1.471 1.341 0 2.57-.453 3.688-1.244l1.229 1.47c-1.341 1.131-3.017 1.81-4.917 1.81zm-4.804-9.727h8.939c0-2.036-.447-3.394-1.341-4.298-.894-.792-1.788-1.244-2.905-1.244-1.341 0-2.459.452-3.352 1.357-.894.905-1.23 2.375-1.341 4.185zm20.001 9.726c-2.123 0-4.023-.904-5.587-2.827l1.564-1.357c1.229 1.47 2.682 2.262 4.246 2.262.894 0 1.676-.227 2.347-.679.558-.452.894-1.018.894-1.81 0-.452-.112-.904-.336-1.244-.223-.339-.558-.678-1.005-1.018a4.539 4.539 0 00-1.229-.678c-.336-.227-.894-.34-1.453-.679-.782-.339-1.341-.565-1.9-.905-.446-.226-1.005-.565-1.452-1.018-.559-.339-.894-.791-1.118-1.357a4.75 4.75 0 01-.335-1.81c0-1.244.447-2.262 1.453-3.054 1.006-.791 2.235-1.131 3.799-1.131 2.123 0 3.911.792 5.252 2.489l-1.453 1.244c-1.117-1.131-2.458-1.81-3.911-1.81-.894 0-1.676.226-2.235.566a1.81 1.81 0 00-.893 1.583c0 .34.111.679.223.905.112.226.335.566.559.679.223.226.447.339.894.565.447.226.67.34 1.005.453.224.113.671.226 1.118.452.67.226 1.117.452 1.452.679.336.113.783.452 1.341.791.559.34 1.006.679 1.229 1.018.336.34.559.792.783 1.245.223.565.335 1.131.335 1.809 0 1.357-.447 2.488-1.453 3.28-1.117.905-2.458 1.357-4.134 1.357zm-27.041-108.015l-.336-102.247-16.202 13.573v21.49c-4.358-2.715-9.386-4.185-14.973-4.185-5.81 0-11.062 1.584-15.644 4.524-4.47 3.054-8.045 7.352-10.503 13.007-2.347 5.542-3.576 12.216-3.576 19.794 0 11.31 2.57 20.132 7.599 26.466 5.14 6.334 12.514 9.614 21.789 9.614 5.699 0 10.95-1.583 15.42-4.75v2.601h16.426v.113zm-19.89-15.382c-2.57 1.583-5.699 2.375-9.274 2.375-9.945 0-14.75-7.352-14.75-22.395 0-6.9 1.34-12.215 3.91-15.834 2.46-3.394 5.811-5.09 10.393-5.09 2.57 0 4.916.452 6.928 1.244 1.9.792 3.91 2.262 6.145 4.298v31.104c0 1.583-1.117 2.94-3.352 4.298zm-49.612 5.429s-.67-.791-.67-4.184V48.974c0-7.918-4.135-12.216-11.622-12.216-.894 0-4.916.453-4.916.453v55.987c0 4.75.447 8.143 1.34 10.292 1.006 2.375 2.57 4.185 4.582 5.316 1.9 1.018 4.358 1.583 7.151 1.583 3.352 0 6.146-.339 8.269-1.131l1.676-.565V99.08h-2.458c-2.794 0-3.352-.679-3.352-.679zM94.867 6.334C90.397 1.81 84.811-.34 78.33 0c-2.906.113-5.7.792-8.046 1.81a34.76 34.76 0 00-6.369 3.62c-1.9 1.356-6.034 4.863-6.034 4.863-3.575 3.28-6.592 4.976-9.05 5.09-4.359.226-7.487-2.715-9.275-8.37l-10.95 9.048c1.229 2.828 2.793 5.316 4.692 7.465 4.47 4.863 9.61 7.125 15.532 6.786 2.57-.113 5.029-.792 7.375-1.81 2.347-1.017 10.727-7.69 10.727-7.69s4.023-3.055 5.81-4.186c1.677-1.018 3.576-1.583 5.811-1.696 3.576-.226 6.258 1.018 8.269 3.62L97.549 9.5c.223 0-1.676-2.148-2.682-3.166zM0 17.305C0 9.614 4.134 5.429 11.62 5.429c1.342 0 4.918.452 4.918.452v9.953L0 30.312V17.305zm17.208 49.879s-.67-.791-.67-4.072V28.163L0 41.962v20.132c0 4.638.447 7.918 1.34 10.067 1.007 2.375 2.57 4.072 4.582 5.203 1.9 1.018 4.358 1.583 7.152 1.583 3.352 0 6.145-.34 8.268-1.13l1.676-.566v-9.275H20.56c-2.57-.226-3.24-.792-3.352-.792z"/></g><defs><clipPath id="clip0"><path fill="#fff" d="M0 0h158v216.369H0z"/></clipPath></defs></svg>